<svg xmlns="http://www.w3.org/2000/svg" version="1.1" xmlns:xlink="http://www.w3.org/1999/xlink" xmlns:svgjs="http://svgjs.com/svgjs" width="2000" height="1000" preserveAspectRatio="none" viewBox="0 0 2000 1000"><g mask="url(&quot;#SvgjsMask1230&quot;)" fill="none"><rect width="2000" height="1000" x="0" y="0" fill="rgba(255, 233, 246, 1)"></rect><path d="M2000.0000000000002 1000L0 1000 L0 578.46Q103.35 515.14, 166.66666666666669 618.49Q228.56 580.38, 266.6666666666667 642.27Q286.28 495.21, 433.33333333333337 514.82Q464.3 379.12, 600 410.09Q662.72 372.8, 700 435.52Q735.78 304.64, 866.6666666666667 340.42Q972.31 279.4, 1033.3333333333335 385.04Q1127.04 378.75, 1133.3333333333335 472.46Q1201.37 373.83, 1300.0000000000002 441.87Q1296.66 338.53, 1400.0000000000002 335.19Q1494.78 329.97, 1500.0000000000002 424.74Q1629.73 454.47, 1600.0000000000002 584.2Q1666.03 550.23, 1700.0000000000002 616.25Q1708.25 524.5, 1800.0000000000002 532.75Q1751.82 384.57, 1900.0000000000002 336.38Q2085.91 422.29, 2000.0000000000002 608.2z" fill="rgba(254, 247, 204, 1)"></path><path d="M2100.0000000000005 1000L0 1000 L0 685.97Q115.27 701.24, 100 816.51Q45.97 662.48, 200 608.44Q261.35 503.12, 366.6666666666667 564.47Q460.69 491.83, 533.3333333333334 585.86Q704.1 589.96, 700 760.72Q688.97 649.69, 800 638.66Q841.12 513.12, 966.6666666666667 554.24Q1067.3 488.21, 1133.3333333333335 588.84Q1244.77 533.61, 1300.0000000000002 645.04Q1390.05 635.09, 1400.0000000000002 725.13Q1434.86 593.33, 1566.666666666667 628.19Q1663.29 558.14, 1733.3333333333337 654.76Q1860.85 682.28, 1833.3333333333337 809.8Q1832.07 708.53, 1933.3333333333337 707.27Q1946.2 553.47, 2100.0000000000005 566.34z" fill="rgba(245, 125, 129, 1)"></path><path d="M2033.3333333333337 1000L0 1000 L0 946.22Q98.51 944.73, 100 1043.24Q165.42 1008.66, 200 1074.08Q225.72 999.8, 300 1025.53Q233.29 858.82, 400 792.11Q571.44 796.89, 566.6666666666667 968.33Q539.49 841.15, 666.6666666666667 813.97Q818.88 866.18, 766.6666666666667 1018.39Q739.73 891.45, 866.6666666666667 864.52Q902.79 800.64, 966.6666666666667 836.77Q1039.11 742.54, 1133.3333333333335 814.98Q1232.9 747.88, 1300.0000000000002 847.45Q1470.44 851.23, 1466.666666666667 1021.67Q1422.32 877.33, 1566.666666666667 832.98Q1600.11 766.42, 1666.666666666667 799.87Q1708.03 741.24, 1766.666666666667 782.6Q1903.23 752.49, 1933.3333333333337 889.05Q2043.26 898.97, 2033.3333333333337 1008.9z" fill="rgba(192, 65, 111, 1)"></path></g><defs><mask id="SvgjsMask1230"><rect width="2000" height="1000" fill="#ffffff"></rect></mask></defs></svg>